<svg id="Layer_1" data-name="Layer 1" xmlns="http://www.w3.org/2000/svg" xmlns:xlink="http://www.w3.org/1999/xlink" viewBox="0 0 144 144"><defs><style>.cls-1{fill:none;}.cls-2{clip-path:url(#clip-path);}.cls-3{clip-path:url(#clip-path-2);}.cls-4{fill:#fdc010;}.cls-5{fill:#c27029;}.cls-6{fill:#82491f;}</style><clipPath id="clip-path"><rect class="cls-1" y="0.32" width="144" height="144" rx="25.26" ry="25.26"/></clipPath><clipPath id="clip-path-2"><rect class="cls-1" x="-37.85" y="-355.07" width="558.46" height="534.46"/></clipPath></defs><title>logo</title><g class="cls-2"><g class="cls-3"><rect class="cls-4" x="-2.31" y="-1.99" width="148.62" height="148.62"/></g></g><path class="cls-5" d="M67.92,77.6,44.17,110.69A5.69,5.69,0,0,1,38.84,113a20.1,20.1,0,0,1-15.2-10.91,5.7,5.7,0,0,1,.5-5.8L47.88,63.22a12.5,12.5,0,0,1,4.33-3.77L56.88,57A8.74,8.74,0,0,0,59.36,55c2.27-2.57,8.36-9.3,19.15-20.17L78.7,34a.53.53,0,0,1,.39-.4l.59-.15a.55.55,0,0,0,.41-.58L80,32.15a.53.53,0,0,1,.51-.58,6.88,6.88,0,0,1,4.08,1.6,6.88,6.88,0,0,1,2.82,3.35.53.53,0,0,1-.39.67l-.71.18a.55.55,0,0,0-.41.57l0,.61a.54.54,0,0,1-.26.5l-.76.45C78.12,53.21,73.7,61.14,72,64.11a8.74,8.74,0,0,0-1,3l-.84,5.21A12.5,12.5,0,0,1,67.92,77.6Z"/><path class="cls-6" d="M119.87,96.31,96.12,63.22a12.5,12.5,0,0,0-4.33-3.77L87.12,57A8.74,8.74,0,0,1,84.64,55c-.56-.63-1.36-1.53-2.39-2.66a.36.36,0,0,0-.58.07c-3.6,6.89-6,11.21-7.12,13.11a5.79,5.79,0,0,0-.7,2h0a14.19,14.19,0,0,0,0,4.49l0,.26a12.5,12.5,0,0,0,2.19,5.31l23.75,33.09A5.66,5.66,0,0,0,105.1,113a20.09,20.09,0,0,0,15.26-10.92A5.69,5.69,0,0,0,119.87,96.31Z"/><path class="cls-6" d="M56.94,37.19l.71.18a.55.55,0,0,1,.41.57l0,.61a.53.53,0,0,0,.26.5l.76.45c1.27,2.54,2.44,4.86,3.54,7a.32.32,0,0,0,.53.08q2.67-2.86,6.46-6.79a.56.56,0,0,0,0-.78c-1.28-1.31-2.63-2.68-4.09-4.15L65.3,34a.53.53,0,0,0-.39-.4l-.59-.15a.55.55,0,0,1-.41-.58l.06-.73a.53.53,0,0,0-.5-.58,6.87,6.87,0,0,0-4.09,1.6,6.88,6.88,0,0,0-2.82,3.35A.53.53,0,0,0,56.94,37.19Z"/></svg>